<?xml version="1.0" encoding="UTF-8"?>
<svg xmlns="http://www.w3.org/2000/svg"
     width="1681" height="2048"
     viewBox="0 0 1681 2048">
  <path d="M 443.78 7.95 C 442.66 6.31, 438.47 7.85, 433.80 10.11 C 429.13 12.37, 421.78 17.64, 415.76 21.53 C 409.75 25.41, 403.14 30.03, 397.73 33.44 C 392.31 36.84, 388.04 39.09, 383.29 41.96 C 378.54 44.84, 373.96 47.62, 369.22 50.68 C 364.48 53.75, 359.67 57.00, 354.87 60.33 C 350.07 63.67, 345.22 67.16, 340.42 70.70 C 335.62 74.24, 330.81 77.89, 326.06 81.58 C 321.31 85.27, 316.59 89.02, 311.93 92.82 C 307.26 96.63, 302.63 100.49, 298.05 104.40 C 293.47 108.31, 288.93 112.27, 284.43 116.29 C 279.94 120.30, 275.49 124.37, 271.10 128.48 C 266.70 132.60, 262.35 136.76, 258.05 140.97 C 253.75 145.18, 249.50 149.43, 245.31 153.73 C 241.11 158.03, 236.97 162.37, 232.88 166.75 C 228.79 171.13, 224.75 175.56, 220.77 180.02 C 216.80 184.48, 212.87 188.98, 209.01 193.52 C 205.14 198.06, 201.34 202.63, 197.59 207.25 C 193.84 211.86, 190.15 216.51, 186.52 221.20 C 182.90 225.89, 179.33 230.62, 175.82 235.39 C 172.31 240.15, 168.86 244.96, 165.48 249.80 C 162.09 254.64, 158.77 259.52, 155.51 264.44 C 152.25 269.36, 149.05 274.31, 145.92 279.31 C 142.78 284.30, 139.71 289.33, 136.71 294.40 C 133.71 299.47, 130.77 304.58, 127.89 309.73 C 125.02 314.87, 122.21 320.05, 119.48 325.27 C 116.74 330.49, 114.06 335.75, 111.46 341.05 C 108.86 346.35, 106.32 351.68, 103.86 357.05 C 101.39 362.42, 98.99 367.83, 96.67 373.28 C 94.34 378.73, 92.09 384.21, 89.90 389.74 C 87.72 395.26, 85.60 400.82, 83.56 406.42 C 81.53 412.01, 79.56 417.65, 77.66 423.31 C 75.77 428.97, 73.95 434.67, 72.20 440.40 C 70.45 446.12, 68.78 451.88, 67.18 457.66 C 65.58 463.44, 64.06 469.25, 62.61 475.08 C 61.17 480.92, 59.79 486.77, 58.50 492.65 C 57.21 498.52, 55.99 504.42, 54.85 510.34 C 53.71 516.25, 52.65 522.18, 51.66 528.13 C 50.68 534.07, 49.77 540.04, 48.95 546.01 C 48.12 551.98, 47.38 557.97, 46.71 563.96 C 46.04 569.95, 45.46 575.95, 44.95 581.96 C 44.45 587.96, 44.02 593.98, 43.68 599.99 C 43.34 606.01, 43.08 612.03, 42.90 618.04 C 42.73 624.06, 42.63 630.08, 42.62 636.09 C 42.61 642.11, 42.69 648.12, 42.85 654.12 C 43.00 660.12, 43.25 666.12, 43.58 672.11 C 43.90 678.10, 44.32 684.08, 44.82 690.05 C 45.32 696.01, 45.90 701.97, 46.58 707.91 C 47.25 713.85, 48.01 719.77, 48.86 725.68 C 49.71 731.58, 50.65 737.47, 51.68 743.34 C 52.70 749.20, 53.82 755.05, 55.02 760.87 C 56.23 766.69, 57.52 772.49, 58.91 778.26 C 60.30 784.03, 61.77 789.77, 63.34 795.48 C 64.91 801.19, 66.57 806.88, 68.32 812.52 C 70.07 818.17, 71.92 823.79, 73.86 829.37 C 75.79 834.95, 77.83 840.49, 79.95 846.00 C 82.08 851.50, 84.30 856.97, 86.61 862.39 C 88.93 867.81, 91.34 873.19, 93.84 878.53 C 96.34 883.87, 98.94 889.16, 101.63 894.41 C 104.31 899.66, 107.09 904.86, 109.95 910.02 C 112.81 915.17, 115.77 920.28, 118.80 925.34 C 121.84 930.40, 124.96 935.42, 128.17 940.38 C 131.37 945.34, 134.66 950.25, 138.02 955.12 C 141.39 959.98, 144.84 964.79, 148.36 969.54 C 151.89 974.30, 155.49 979.00, 159.17 983.65 C 162.84 988.30, 166.60 992.90, 170.42 997.43 C 174.24 1001.97, 178.14 1006.46, 182.11 1010.88 C 186.07 1015.30, 190.11 1019.67, 194.22 1023.98 C 198.32 1028.29, 202.49 1032.54, 206.73 1036.72 C 210.96 1040.91, 215.27 1045.04, 219.63 1049.10 C 223.99 1053.17, 228.42 1057.17, 232.91 1061.11 C 237.39 1065.04, 241.94 1068.92, 246.54 1072.73 C 251.14 1076.54, 255.80 1080.28, 260.52 1083.96 C 265.23 1087.63, 270.00 1091.24, 274.83 1094.78 C 279.65 1098.32, 284.52 1101.80, 289.45 1105.20 C 294.37 1108.60, 299.34 1111.93, 304.36 1115.19 C 309.38 1118.45, 314.45 1121.64, 319.57 1124.76 C 324.68 1127.87, 329.84 1130.92, 335.03 1133.88 C 340.23 1136.85, 345.48 1139.74, 350.76 1142.56 C 356.04 1145.37, 361.36 1148.12, 366.71 1150.78 C 372.07 1153.44, 377.47 1156.02, 382.90 1158.53 C 388.32 1161.03, 393.79 1163.46, 399.28 1165.80 C 404.78 1168.15, 410.31 1170.41, 415.86 1172.59 C 421.42 1174.77, 427.01 1176.87, 432.62 1178.89 C 438.23 1180.90, 443.88 1182.83, 449.54 1184.68 C 455.20 1186.52, 460.89 1188.28, 466.60 1189.95 C 472.31 1191.62, 478.05 1193.20, 483.80 1194.71 C 489.55 1196.22, 495.32 1197.63, 501.11 1199.00 C 506.89 1200.37, 512.70 1201.65, 518.51 1202.91 C 524.32 1204.16, 530.15 1205.35, 535.99 1206.51 C 541.82 1207.68, 547.67 1208.80, 553.52 1209.90 C 559.37 1211.01, 565.23 1212.08, 571.09 1213.16 C 576.95 1214.24, 582.82 1215.29, 588.68 1216.37 C 594.54 1217.44, 600.41 1218.51, 606.27 1219.61 C 612.13 1220.71, 617.98 1221.82, 623.83 1222.97 C 629.68 1224.13, 635.53 1225.30, 641.36 1226.54 C 647.19 1227.77, 653.02 1229.04, 658.83 1230.38 C 664.64 1231.73, 670.43 1233.12, 676.22 1234.60 C 682.00 1236.08, 687.76 1237.62, 693.51 1239.27 C 699.25 1240.91, 704.98 1242.64, 710.68 1244.47 C 716.38 1246.31, 722.07 1248.24, 727.71 1250.27 C 733.35 1252.31, 738.97 1254.44, 744.54 1256.68 C 750.10 1258.92, 755.63 1261.26, 761.11 1263.71 C 766.58 1266.16, 772.01 1268.71, 777.37 1271.37 C 782.73 1274.03, 788.03 1276.80, 793.26 1279.68 C 798.49 1282.55, 803.66 1285.54, 808.74 1288.64 C 813.82 1291.74, 818.83 1294.95, 823.74 1298.27 C 828.66 1301.60, 833.49 1305.04, 838.22 1308.59 C 842.95 1312.14, 847.59 1315.81, 852.11 1319.60 C 856.64 1323.39, 861.07 1327.29, 865.37 1331.32 C 869.67 1335.34, 873.87 1339.48, 877.94 1343.75 C 882.00 1348.02, 885.95 1352.40, 889.76 1356.91 C 893.56 1361.42, 897.25 1366.06, 900.78 1370.82 C 904.31 1375.58, 907.70 1380.47, 910.95 1385.48 C 914.19 1390.49, 917.28 1395.64, 920.25 1400.85 C 923.22 1406.07, 926.04 1411.41, 928.77 1416.79 C 931.50 1422.16, 934.10 1427.63, 936.62 1433.11 C 939.14 1438.59, 941.57 1444.09, 943.89 1449.65 C 946.22 1455.21, 948.48 1460.75, 950.57 1466.44 C 952.66 1472.14, 954.79 1478.15, 956.45 1483.83 C 958.10 1489.50, 960.59 1497.29, 960.50 1500.50 C 960.40 1503.72, 958.85 1504.84, 955.89 1503.14 C 952.92 1501.43, 947.25 1495.09, 942.70 1490.25 C 938.14 1485.41, 932.83 1478.90, 928.55 1474.09 C 924.26 1469.29, 920.94 1465.52, 917.00 1461.43 C 913.06 1457.34, 909.16 1453.50, 904.93 1449.56 C 900.69 1445.61, 896.18 1441.62, 891.60 1437.75 C 887.02 1433.87, 882.23 1430.02, 877.43 1426.32 C 872.63 1422.63, 867.73 1419.03, 862.79 1415.58 C 857.86 1412.12, 852.86 1408.78, 847.81 1405.56 C 842.76 1402.34, 837.66 1399.24, 832.50 1396.25 C 827.35 1393.25, 822.14 1390.37, 816.89 1387.59 C 811.64 1384.81, 806.34 1382.14, 801.00 1379.55 C 795.65 1376.97, 790.27 1374.50, 784.84 1372.10 C 779.42 1369.71, 773.95 1367.42, 768.45 1365.20 C 762.95 1362.99, 757.41 1360.86, 751.84 1358.81 C 746.27 1356.76, 740.66 1354.80, 735.03 1352.90 C 729.40 1351.00, 723.74 1349.18, 718.05 1347.42 C 712.37 1345.66, 706.65 1343.97, 700.92 1342.34 C 695.19 1340.71, 689.43 1339.14, 683.66 1337.63 C 677.89 1336.11, 672.10 1334.65, 666.29 1333.24 C 660.49 1331.82, 654.67 1330.46, 648.84 1329.14 C 643.01 1327.81, 637.17 1326.54, 631.32 1325.29 C 625.47 1324.03, 619.62 1322.82, 613.75 1321.63 C 607.89 1320.43, 602.02 1319.27, 596.15 1318.11 C 590.29 1316.95, 584.41 1315.81, 578.54 1314.67 C 572.67 1313.52, 566.79 1312.39, 560.92 1311.25 C 555.06 1310.11, 549.19 1308.97, 543.33 1307.80 C 537.47 1306.64, 531.61 1305.47, 525.76 1304.27 C 519.92 1303.06, 514.08 1301.85, 508.25 1300.59 C 502.43 1299.33, 496.61 1298.04, 490.81 1296.70 C 485.00 1295.37, 479.21 1294.00, 473.44 1292.57 C 467.67 1291.13, 461.91 1289.66, 456.18 1288.11 C 450.44 1286.57, 444.73 1284.97, 439.03 1283.29 C 433.34 1281.61, 427.66 1279.87, 422.02 1278.04 C 416.37 1276.21, 410.75 1274.31, 405.15 1272.31 C 399.56 1270.31, 393.99 1268.23, 388.45 1266.06 C 382.92 1263.89, 377.41 1261.63, 371.94 1259.29 C 366.47 1256.94, 361.03 1254.51, 355.63 1252.00 C 350.24 1249.49, 344.87 1246.89, 339.55 1244.21 C 334.24 1241.53, 328.95 1238.77, 323.72 1235.92 C 318.49 1233.07, 313.29 1230.14, 308.15 1227.13 C 303.01 1224.12, 297.91 1221.03, 292.87 1217.86 C 287.83 1214.69, 282.83 1211.43, 277.90 1208.10 C 272.96 1204.77, 268.07 1201.36, 263.25 1197.87 C 258.42 1194.38, 253.65 1190.81, 248.95 1187.17 C 244.24 1183.52, 239.59 1179.80, 235.01 1176.00 C 230.43 1172.20, 225.91 1168.33, 221.46 1164.38 C 217.01 1160.43, 212.63 1156.40, 208.32 1152.31 C 204.01 1148.21, 199.76 1144.03, 195.60 1139.79 C 191.43 1135.54, 187.34 1131.22, 183.33 1126.83 C 179.31 1122.44, 175.38 1117.97, 171.51 1113.45 C 167.65 1108.92, 163.86 1104.32, 160.14 1099.67 C 156.42 1095.02, 152.77 1090.30, 149.19 1085.53 C 145.61 1080.76, 142.10 1075.93, 138.65 1071.05 C 135.20 1066.18, 131.82 1061.24, 128.50 1056.27 C 125.18 1051.30, 121.93 1046.28, 118.73 1041.22 C 115.53 1036.16, 112.40 1031.06, 109.32 1025.93 C 106.24 1020.79, 103.22 1015.62, 100.25 1010.42 C 97.28 1005.23, 94.37 999.99, 91.51 994.74 C 88.65 989.49, 85.84 984.21, 83.08 978.91 C 80.33 973.62, 77.62 968.29, 74.95 962.96 C 72.29 957.63, 69.67 952.28, 67.10 946.93 C 64.53 941.57, 62.00 936.21, 59.51 930.84 C 57.02 925.47, 54.58 920.10, 52.17 914.72 C 49.76 909.35, 47.39 904.00, 45.06 898.60 C 42.72 893.20, 40.43 887.81, 38.17 882.32 C 35.91 876.83, 33.69 871.31, 31.51 865.67 C 29.33 860.02, 27.19 854.26, 25.08 848.43 C 22.96 842.59, 20.91 836.52, 18.82 830.68 C 16.73 824.83, 14.65 818.79, 12.55 813.37 C 10.44 807.95, 8.04 801.47, 6.17 798.18 C 4.30 794.89, 2.47 792.50, 1.34 793.63 C 0.21 794.76, -0.28 799.67, -0.60 804.96 C -0.93 810.25, -0.74 818.34, -0.60 825.37 C -0.46 832.40, -0.07 840.33, 0.25 847.13 C 0.56 853.93, 0.91 860.07, 1.29 866.15 C 1.67 872.23, 2.07 877.81, 2.52 883.60 C 2.98 889.38, 3.47 895.08, 4.01 900.84 C 4.55 906.60, 5.14 912.38, 5.77 918.17 C 6.40 923.96, 7.07 929.76, 7.80 935.58 C 8.52 941.39, 9.29 947.21, 10.11 953.04 C 10.93 958.87, 11.80 964.71, 12.72 970.55 C 13.63 976.38, 14.60 982.23, 15.62 988.07 C 16.63 993.92, 17.70 999.77, 18.82 1005.61 C 19.94 1011.46, 21.11 1017.30, 22.33 1023.14 C 23.56 1028.98, 24.83 1034.81, 26.16 1040.64 C 27.49 1046.47, 28.88 1052.29, 30.32 1058.10 C 31.76 1063.91, 33.25 1069.71, 34.80 1075.50 C 36.35 1081.29, 37.96 1087.07, 39.62 1092.83 C 41.29 1098.58, 43.01 1104.33, 44.79 1110.06 C 46.57 1115.78, 48.41 1121.49, 50.31 1127.18 C 52.21 1132.87, 54.17 1138.54, 56.19 1144.18 C 58.21 1149.82, 60.29 1155.44, 62.43 1161.03 C 64.57 1166.62, 66.78 1172.19, 69.05 1177.73 C 71.32 1183.26, 73.65 1188.77, 76.04 1194.25 C 78.44 1199.72, 80.90 1205.17, 83.42 1210.57 C 85.95 1215.98, 88.54 1221.36, 91.20 1226.69 C 93.86 1232.03, 96.58 1237.33, 99.37 1242.58 C 102.17 1247.84, 105.03 1253.06, 107.95 1258.23 C 110.88 1263.41, 113.88 1268.54, 116.95 1273.62 C 120.02 1278.71, 123.16 1283.75, 126.37 1288.74 C 129.58 1293.73, 132.86 1298.67, 136.21 1303.56 C 139.57 1308.45, 142.99 1313.29, 146.49 1318.07 C 149.99 1322.86, 153.57 1327.59, 157.21 1332.26 C 160.86 1336.93, 164.59 1341.55, 168.38 1346.11 C 172.18 1350.66, 176.05 1355.16, 179.99 1359.60 C 183.93 1364.04, 187.94 1368.43, 192.01 1372.76 C 196.09 1377.08, 200.23 1381.35, 204.43 1385.57 C 208.64 1389.78, 212.91 1393.94, 217.23 1398.04 C 221.56 1402.14, 225.94 1406.18, 230.38 1410.17 C 234.82 1414.16, 239.32 1418.09, 243.87 1421.96 C 248.41 1425.84, 253.01 1429.66, 257.66 1433.43 C 262.31 1437.19, 267.01 1440.90, 271.75 1444.56 C 276.49 1448.22, 281.28 1451.82, 286.11 1455.37 C 290.94 1458.91, 295.81 1462.41, 300.72 1465.84 C 305.62 1469.28, 310.57 1472.67, 315.55 1476.00 C 320.53 1479.33, 325.55 1482.61, 330.60 1485.83 C 335.64 1489.06, 340.72 1492.23, 345.83 1495.35 C 350.93 1498.47, 356.07 1501.53, 361.22 1504.55 C 366.38 1507.56, 371.56 1510.52, 376.76 1513.43 C 381.96 1516.34, 387.19 1519.20, 392.43 1522.01 C 397.67 1524.82, 402.93 1527.57, 408.20 1530.29 C 413.48 1533.00, 418.77 1535.67, 424.08 1538.31 C 429.39 1540.94, 434.71 1543.54, 440.05 1546.10 C 445.39 1548.66, 450.75 1551.19, 456.12 1553.69 C 461.48 1556.20, 466.87 1558.67, 472.26 1561.12 C 477.65 1563.57, 483.06 1566.00, 488.48 1568.41 C 493.90 1570.83, 499.33 1573.22, 504.77 1575.60 C 510.21 1577.99, 515.66 1580.36, 521.11 1582.72 C 526.57 1585.09, 532.04 1587.44, 537.51 1589.80 C 542.99 1592.16, 548.47 1594.52, 553.96 1596.88 C 559.45 1599.24, 564.95 1601.60, 570.45 1603.98 C 575.95 1606.35, 581.45 1608.73, 586.96 1611.13 C 592.48 1613.53, 597.99 1615.94, 603.51 1618.37 C 609.02 1620.81, 614.55 1623.25, 620.05 1625.75 C 625.55 1628.24, 631.06 1630.75, 636.51 1633.33 C 641.97 1635.91, 647.41 1638.53, 652.79 1641.23 C 658.16 1643.93, 663.51 1646.69, 668.77 1649.54 C 674.03 1652.39, 679.24 1655.31, 684.35 1658.35 C 689.47 1661.38, 694.51 1664.50, 699.44 1667.75 C 704.37 1671.01, 709.22 1674.36, 713.93 1677.86 C 718.64 1681.36, 723.25 1684.97, 727.71 1688.75 C 732.17 1692.53, 736.51 1696.44, 740.68 1700.53 C 744.85 1704.62, 748.89 1708.86, 752.74 1713.29 C 756.60 1717.73, 760.29 1722.32, 763.79 1727.13 C 767.29 1731.94, 770.61 1736.93, 773.72 1742.15 C 776.82 1747.37, 779.74 1752.78, 782.42 1758.44 C 785.10 1764.09, 787.59 1769.98, 789.80 1776.09 C 792.02 1782.20, 794.17 1788.92, 795.71 1795.10 C 797.26 1801.29, 798.72 1808.07, 799.09 1813.19 C 799.47 1818.30, 799.42 1823.26, 797.99 1825.80 C 796.55 1828.34, 793.96 1829.24, 790.46 1828.44 C 786.97 1827.64, 781.92 1824.31, 777.00 1821.01 C 772.07 1817.72, 766.14 1812.72, 760.90 1808.66 C 755.66 1804.61, 750.47 1800.34, 745.55 1796.69 C 740.64 1793.04, 736.20 1789.96, 731.40 1786.77 C 726.60 1783.58, 721.73 1780.53, 716.73 1777.54 C 711.74 1774.54, 706.63 1771.63, 701.44 1768.80 C 696.26 1765.97, 690.97 1763.22, 685.64 1760.54 C 680.30 1757.86, 674.88 1755.26, 669.42 1752.73 C 663.97 1750.20, 658.45 1747.75, 652.91 1745.36 C 647.38 1742.98, 641.79 1740.66, 636.21 1738.41 C 630.63 1736.16, 625.03 1733.98, 619.42 1731.86 C 613.82 1729.73, 608.20 1727.67, 602.58 1725.66 C 596.96 1723.64, 591.33 1721.69, 585.70 1719.77 C 580.06 1717.85, 574.42 1715.99, 568.77 1714.15 C 563.12 1712.31, 557.47 1710.52, 551.81 1708.74 C 546.15 1706.97, 540.48 1705.23, 534.81 1703.51 C 529.14 1701.79, 523.46 1700.09, 517.78 1698.40 C 512.10 1696.71, 506.42 1695.04, 500.73 1693.37 C 495.04 1691.69, 489.35 1690.03, 483.66 1688.36 C 477.96 1686.69, 472.26 1685.02, 466.56 1683.34 C 460.86 1681.65, 455.16 1679.97, 449.46 1678.25 C 443.75 1676.54, 438.05 1674.82, 432.34 1673.06 C 426.64 1671.30, 420.93 1669.52, 415.22 1667.70 C 409.51 1665.88, 403.80 1664.04, 398.10 1662.14 C 392.39 1660.25, 386.68 1658.31, 380.98 1656.34 C 375.29 1654.36, 369.59 1652.34, 363.92 1650.29 C 358.25 1648.23, 352.59 1646.14, 346.97 1644.01 C 341.35 1641.88, 335.74 1639.72, 330.19 1637.52 C 324.64 1635.33, 319.11 1633.10, 313.64 1630.84 C 308.18 1628.58, 302.75 1626.29, 297.39 1623.98 C 292.03 1621.67, 286.72 1619.33, 281.49 1616.97 C 276.26 1614.61, 271.11 1612.25, 266.00 1609.81 C 260.88 1607.38, 255.90 1604.98, 250.80 1602.35 C 245.70 1599.73, 240.66 1597.06, 235.41 1594.06 C 230.16 1591.06, 224.88 1587.91, 219.29 1584.34 C 213.71 1580.77, 207.76 1576.66, 201.92 1572.64 C 196.08 1568.61, 189.47 1563.57, 184.23 1560.20 C 179.00 1556.84, 173.66 1553.30, 170.51 1552.45 C 167.36 1551.61, 165.48 1552.62, 165.35 1555.13 C 165.21 1557.65, 167.18 1563.00, 169.70 1567.51 C 172.22 1572.03, 176.49 1577.39, 180.46 1582.22 C 184.43 1587.06, 189.28 1591.80, 193.53 1596.52 C 197.77 1601.24, 201.91 1605.91, 205.94 1610.54 C 209.98 1615.17, 213.85 1619.76, 217.73 1624.32 C 221.61 1628.87, 225.39 1633.38, 229.22 1637.85 C 233.05 1642.33, 236.84 1646.76, 240.73 1651.16 C 244.62 1655.56, 248.55 1659.93, 252.54 1664.26 C 256.54 1668.58, 260.59 1672.88, 264.69 1677.14 C 268.79 1681.39, 272.94 1685.62, 277.14 1689.81 C 281.33 1694.00, 285.58 1698.16, 289.86 1702.29 C 294.14 1706.41, 298.47 1710.51, 302.83 1714.57 C 307.18 1718.63, 311.58 1722.66, 316.01 1726.67 C 320.43 1730.67, 324.89 1734.64, 329.37 1738.59 C 333.85 1742.53, 338.35 1746.44, 342.88 1750.33 C 347.41 1754.22, 351.96 1758.08, 356.54 1761.91 C 361.11 1765.74, 365.71 1769.54, 370.32 1773.32 C 374.94 1777.09, 379.58 1780.84, 384.24 1784.56 C 388.90 1788.28, 393.58 1791.97, 398.29 1795.64 C 402.99 1799.30, 407.71 1802.94, 412.45 1806.55 C 417.20 1810.16, 421.96 1813.75, 426.74 1817.30 C 431.52 1820.86, 436.32 1824.39, 441.14 1827.89 C 445.96 1831.40, 450.80 1834.87, 455.65 1838.32 C 460.51 1841.77, 465.38 1845.20, 470.27 1848.59 C 475.16 1851.99, 480.07 1855.36, 484.99 1858.71 C 489.92 1862.05, 494.86 1865.37, 499.82 1868.66 C 504.77 1871.96, 509.75 1875.22, 514.73 1878.47 C 519.72 1881.71, 524.73 1884.92, 529.74 1888.11 C 534.76 1891.31, 539.79 1894.47, 544.84 1897.61 C 549.89 1900.75, 554.95 1903.87, 560.02 1906.96 C 565.10 1910.05, 570.19 1913.11, 575.29 1916.16 C 580.39 1919.21, 585.51 1922.23, 590.63 1925.23 C 595.76 1928.23, 600.91 1931.21, 606.06 1934.18 C 611.22 1937.14, 616.39 1940.08, 621.57 1943.01 C 626.75 1945.93, 631.94 1948.84, 637.15 1951.73 C 642.36 1954.63, 647.58 1957.50, 652.81 1960.36 C 658.04 1963.22, 663.29 1966.07, 668.54 1968.90 C 673.80 1971.74, 679.07 1974.56, 684.35 1977.37 C 689.63 1980.18, 694.92 1982.97, 700.23 1985.76 C 705.53 1988.55, 710.85 1991.33, 716.18 1994.09 C 721.51 1996.86, 726.85 1999.62, 732.20 2002.38 C 737.55 2005.13, 742.92 2007.88, 748.29 2010.62 C 753.66 2013.36, 759.05 2016.14, 764.45 2018.83 C 769.84 2021.52, 775.25 2024.36, 780.67 2026.78 C 786.10 2029.20, 791.53 2031.62, 797.00 2033.35 C 802.46 2035.09, 807.94 2036.59, 813.45 2037.20 C 818.97 2037.81, 824.51 2037.77, 830.07 2037.00 C 835.63 2036.23, 841.23 2034.54, 846.82 2032.57 C 852.40 2030.60, 858.01 2027.91, 863.57 2025.19 C 869.14 2022.47, 874.71 2019.26, 880.22 2016.25 C 885.73 2013.23, 891.21 2010.06, 896.63 2007.09 C 902.06 2004.12, 907.43 2001.26, 912.77 1998.44 C 918.11 1995.63, 923.40 1992.91, 928.67 1990.21 C 933.94 1987.52, 939.17 1984.89, 944.38 1982.26 C 949.60 1979.63, 954.78 1977.05, 959.96 1974.44 C 965.13 1971.83, 970.28 1969.25, 975.44 1966.61 C 980.59 1963.98, 985.73 1961.34, 990.88 1958.64 C 996.02 1955.93, 1001.17 1953.19, 1006.32 1950.38 C 1011.46 1947.57, 1016.61 1944.71, 1021.75 1941.80 C 1026.89 1938.88, 1032.03 1935.91, 1037.15 1932.89 C 1042.28 1929.87, 1047.40 1926.79, 1052.49 1923.66 C 1057.59 1920.52, 1062.68 1917.34, 1067.74 1914.10 C 1072.80 1910.86, 1077.85 1907.56, 1082.86 1904.22 C 1087.88 1900.87, 1092.87 1897.47, 1097.83 1894.01 C 1102.79 1890.56, 1107.73 1887.05, 1112.62 1883.48 C 1117.52 1879.92, 1122.38 1876.30, 1127.20 1872.63 C 1132.02 1868.96, 1136.81 1865.24, 1141.54 1861.46 C 1146.28 1857.68, 1150.97 1853.85, 1155.61 1849.96 C 1160.25 1846.08, 1164.85 1842.14, 1169.38 1838.15 C 1173.92 1834.16, 1178.40 1830.11, 1182.82 1826.01 C 1187.24 1821.91, 1191.61 1817.76, 1195.91 1813.56 C 1200.20 1809.35, 1204.44 1805.09, 1208.60 1800.78 C 1212.77 1796.47, 1216.86 1792.10, 1220.88 1787.68 C 1224.90 1783.27, 1228.85 1778.79, 1232.71 1774.27 C 1236.58 1769.75, 1240.37 1765.17, 1244.07 1760.54 C 1247.77 1755.91, 1251.39 1751.22, 1254.92 1746.49 C 1258.45 1741.75, 1261.89 1736.96, 1265.24 1732.12 C 1268.58 1727.28, 1271.83 1722.38, 1274.99 1717.44 C 1278.14 1712.49, 1281.19 1707.49, 1284.14 1702.44 C 1287.09 1697.38, 1289.94 1692.28, 1292.68 1687.12 C 1295.41 1681.96, 1298.04 1676.75, 1300.55 1671.49 C 1303.07 1666.22, 1305.47 1660.91, 1307.75 1655.54 C 1310.03 1650.17, 1312.20 1644.75, 1314.24 1639.28 C 1316.28 1633.81, 1318.19 1628.28, 1319.98 1622.70 C 1321.77 1617.13, 1323.43 1611.50, 1324.95 1605.81 C 1326.48 1600.13, 1327.87 1594.39, 1329.13 1588.61 C 1330.38 1582.83, 1331.50 1577.00, 1332.49 1571.13 C 1333.48 1565.26, 1334.34 1559.34, 1335.07 1553.41 C 1335.79 1547.47, 1336.39 1541.49, 1336.85 1535.50 C 1337.32 1529.50, 1337.66 1523.48, 1337.87 1517.45 C 1338.08 1511.41, 1338.17 1505.36, 1338.13 1499.30 C 1338.09 1493.25, 1337.92 1487.18, 1337.63 1481.12 C 1337.35 1475.06, 1336.94 1468.99, 1336.41 1462.95 C 1335.88 1456.90, 1335.22 1450.85, 1334.45 1444.82 C 1333.68 1438.80, 1332.79 1432.79, 1331.78 1426.81 C 1330.78 1420.82, 1329.65 1414.86, 1328.41 1408.94 C 1327.17 1403.02, 1325.82 1397.12, 1324.35 1391.27 C 1322.89 1385.43, 1321.30 1379.61, 1319.61 1373.86 C 1317.92 1368.10, 1316.12 1362.39, 1314.21 1356.74 C 1312.30 1351.09, 1310.27 1345.50, 1308.15 1339.96 C 1306.02 1334.42, 1303.79 1328.94, 1301.45 1323.51 C 1299.12 1318.09, 1296.68 1312.72, 1294.14 1307.40 C 1291.60 1302.09, 1288.96 1296.83, 1286.23 1291.62 C 1283.49 1286.42, 1280.66 1281.27, 1277.73 1276.17 C 1274.81 1271.07, 1271.79 1266.03, 1268.68 1261.04 C 1265.57 1256.05, 1262.37 1251.11, 1259.08 1246.23 C 1255.80 1241.35, 1252.42 1236.52, 1248.96 1231.74 C 1245.50 1226.96, 1241.96 1222.24, 1238.33 1217.57 C 1234.71 1212.89, 1231.00 1208.27, 1227.22 1203.70 C 1223.44 1199.13, 1219.57 1194.62, 1215.63 1190.15 C 1211.70 1185.68, 1207.68 1181.27, 1203.60 1176.90 C 1199.52 1172.53, 1195.36 1168.22, 1191.14 1163.95 C 1186.91 1159.69, 1182.62 1155.47, 1178.26 1151.31 C 1173.90 1147.14, 1169.49 1143.03, 1164.98 1138.95 C 1160.48 1134.88, 1155.95 1130.87, 1151.23 1126.86 C 1146.52 1122.85, 1141.67 1118.87, 1136.71 1114.92 C 1131.76 1110.97, 1125.16 1106.47, 1121.50 1103.17 C 1117.85 1099.86, 1113.85 1096.47, 1114.81 1095.08 C 1115.76 1093.70, 1121.61 1094.16, 1127.25 1094.85 C 1132.88 1095.54, 1141.99 1097.66, 1148.60 1099.22 C 1155.22 1100.77, 1161.18 1102.48, 1166.93 1104.18 C 1172.68 1105.87, 1177.68 1107.53, 1183.09 1109.38 C 1188.50 1111.23, 1193.94 1113.19, 1199.37 1115.26 C 1204.81 1117.34, 1210.27 1119.52, 1215.70 1121.83 C 1221.14 1124.13, 1226.58 1126.54, 1231.97 1129.07 C 1237.37 1131.60, 1242.75 1134.24, 1248.07 1136.99 C 1253.39 1139.75, 1258.68 1142.61, 1263.89 1145.59 C 1269.10 1148.57, 1274.26 1151.67, 1279.33 1154.87 C 1284.40 1158.07, 1289.40 1161.38, 1294.31 1164.80 C 1299.23 1168.22, 1304.07 1171.75, 1308.82 1175.38 C 1313.57 1179.01, 1318.25 1182.75, 1322.82 1186.58 C 1327.40 1190.41, 1331.90 1194.34, 1336.30 1198.37 C 1340.70 1202.40, 1345.00 1206.53, 1349.21 1210.74 C 1353.42 1214.96, 1357.53 1219.27, 1361.54 1223.67 C 1365.55 1228.07, 1369.46 1232.56, 1373.26 1237.13 C 1377.06 1241.70, 1380.75 1246.36, 1384.33 1251.10 C 1387.91 1255.84, 1391.39 1260.67, 1394.74 1265.57 C 1398.10 1270.47, 1401.34 1275.45, 1404.46 1280.51 C 1407.57 1285.56, 1410.58 1290.69, 1413.45 1295.89 C 1416.32 1301.09, 1419.08 1306.36, 1421.69 1311.70 C 1424.31 1317.04, 1426.81 1322.45, 1429.16 1327.92 C 1431.52 1333.39, 1433.75 1338.93, 1435.83 1344.53 C 1437.91 1350.12, 1439.86 1355.78, 1441.67 1361.49 C 1443.48 1367.19, 1445.15 1372.96, 1446.68 1378.76 C 1448.21 1384.55, 1449.61 1390.40, 1450.87 1396.26 C 1452.13 1402.12, 1453.25 1408.02, 1454.25 1413.92 C 1455.24 1419.82, 1456.09 1425.75, 1456.82 1431.68 C 1457.55 1437.60, 1458.14 1443.53, 1458.60 1449.45 C 1459.06 1455.37, 1459.39 1461.29, 1459.59 1467.18 C 1459.79 1473.07, 1459.88 1478.93, 1459.80 1484.79 C 1459.73 1490.66, 1459.53 1496.48, 1459.14 1502.36 C 1458.74 1508.24, 1458.20 1514.11, 1457.42 1520.06 C 1456.65 1526.02, 1455.65 1531.96, 1454.48 1538.09 C 1453.31 1544.21, 1451.59 1550.36, 1450.42 1556.82 C 1449.24 1563.28, 1447.26 1572.51, 1447.42 1576.85 C 1447.57 1581.20, 1448.88 1583.96, 1451.35 1582.88 C 1453.82 1581.81, 1458.58 1574.81, 1462.23 1570.40 C 1465.88 1565.99, 1469.63 1561.14, 1473.24 1556.42 C 1476.85 1551.70, 1480.41 1546.92, 1483.89 1542.08 C 1487.38 1537.24, 1490.81 1532.34, 1494.16 1527.39 C 1497.51 1522.44, 1500.79 1517.43, 1503.99 1512.36 C 1507.19 1507.30, 1510.32 1502.19, 1513.36 1497.02 C 1516.39 1491.86, 1519.35 1486.64, 1522.21 1481.37 C 1525.07 1476.11, 1527.85 1470.79, 1530.52 1465.44 C 1533.19 1460.08, 1535.76 1454.67, 1538.23 1449.22 C 1540.70 1443.78, 1543.07 1438.28, 1545.32 1432.75 C 1547.57 1427.22, 1549.71 1421.65, 1551.73 1416.04 C 1553.75 1410.43, 1555.66 1404.78, 1557.44 1399.09 C 1559.21 1393.41, 1560.87 1387.68, 1562.39 1381.93 C 1563.91 1376.18, 1565.31 1370.39, 1566.56 1364.57 C 1567.81 1358.75, 1568.92 1352.90, 1569.89 1347.03 C 1570.86 1341.15, 1571.69 1335.24, 1572.38 1329.32 C 1573.07 1323.40, 1573.61 1317.45, 1574.01 1311.50 C 1574.42 1305.55, 1574.68 1299.58, 1574.81 1293.61 C 1574.93 1287.65, 1574.91 1281.67, 1574.76 1275.70 C 1574.60 1269.73, 1574.31 1263.76, 1573.88 1257.80 C 1573.44 1251.85, 1572.87 1245.90, 1572.17 1239.97 C 1571.46 1234.04, 1570.61 1228.13, 1569.63 1222.24 C 1568.65 1216.36, 1567.52 1210.50, 1566.27 1204.67 C 1565.01 1198.85, 1563.62 1193.05, 1562.10 1187.29 C 1560.57 1181.54, 1558.91 1175.82, 1557.11 1170.16 C 1555.31 1164.50, 1553.38 1158.87, 1551.32 1153.31 C 1549.25 1147.75, 1547.05 1142.24, 1544.72 1136.79 C 1542.39 1131.35, 1539.93 1125.96, 1537.33 1120.65 C 1534.74 1115.34, 1532.00 1110.10, 1529.15 1104.93 C 1526.30 1099.76, 1523.31 1094.66, 1520.21 1089.63 C 1517.11 1084.61, 1513.88 1079.65, 1510.54 1074.77 C 1507.21 1069.89, 1503.75 1065.08, 1500.20 1060.34 C 1496.64 1055.60, 1492.97 1050.93, 1489.21 1046.34 C 1485.45 1041.75, 1481.58 1037.22, 1477.63 1032.77 C 1473.67 1028.32, 1469.61 1023.94, 1465.48 1019.64 C 1461.34 1015.33, 1457.11 1011.10, 1452.81 1006.94 C 1448.51 1002.78, 1444.12 998.69, 1439.66 994.67 C 1435.20 990.65, 1430.67 986.71, 1426.07 982.83 C 1421.47 978.96, 1416.80 975.16, 1412.08 971.43 C 1407.35 967.70, 1402.56 964.04, 1397.73 960.46 C 1392.89 956.88, 1387.99 953.37, 1383.05 949.93 C 1378.12 946.49, 1373.13 943.12, 1368.10 939.83 C 1363.08 936.53, 1358.01 933.31, 1352.91 930.16 C 1347.81 927.01, 1342.67 923.93, 1337.51 920.92 C 1332.34 917.92, 1327.14 914.98, 1321.90 912.11 C 1316.67 909.24, 1311.41 906.45, 1306.12 903.72 C 1300.83 900.98, 1295.50 898.32, 1290.16 895.73 C 1284.81 893.13, 1279.43 890.60, 1274.03 888.13 C 1268.63 885.67, 1263.20 883.27, 1257.76 880.93 C 1252.31 878.59, 1246.84 876.32, 1241.34 874.11 C 1235.85 871.90, 1230.34 869.75, 1224.80 867.66 C 1219.27 865.57, 1213.72 863.55, 1208.15 861.58 C 1202.58 859.61, 1196.99 857.70, 1191.39 855.85 C 1185.79 854.00, 1180.17 852.20, 1174.54 850.47 C 1168.91 848.73, 1163.27 847.05, 1157.61 845.42 C 1151.96 843.80, 1146.30 842.23, 1140.62 840.71 C 1134.94 839.19, 1129.30 837.75, 1123.54 836.31 C 1117.77 834.88, 1112.03 833.50, 1106.04 832.09 C 1100.06 830.68, 1094.00 829.29, 1087.61 827.83 C 1081.22 826.37, 1074.24 824.85, 1067.71 823.33 C 1061.17 821.81, 1052.61 820.02, 1048.38 818.72 C 1044.15 817.41, 1040.94 816.18, 1042.34 815.50 C 1043.74 814.83, 1051.16 814.81, 1056.77 814.67 C 1062.37 814.53, 1069.68 814.62, 1075.95 814.66 C 1082.22 814.70, 1088.33 814.78, 1094.38 814.90 C 1100.43 815.02, 1106.34 815.19, 1112.23 815.40 C 1118.11 815.61, 1123.89 815.87, 1129.67 816.17 C 1135.45 816.47, 1141.16 816.81, 1146.90 817.21 C 1152.63 817.60, 1158.33 818.04, 1164.09 818.52 C 1169.84 819.01, 1175.60 819.54, 1181.41 820.13 C 1187.21 820.71, 1193.05 821.34, 1198.91 822.03 C 1204.76 822.72, 1210.65 823.45, 1216.54 824.25 C 1222.44 825.04, 1228.36 825.89, 1234.28 826.80 C 1240.20 827.71, 1246.14 828.67, 1252.08 829.70 C 1258.02 830.73, 1263.97 831.82, 1269.91 832.97 C 1275.85 834.13, 1281.79 835.34, 1287.72 836.62 C 1293.65 837.91, 1299.58 839.26, 1305.49 840.68 C 1311.39 842.10, 1317.29 843.58, 1323.17 845.14 C 1329.04 846.71, 1334.90 848.34, 1340.72 850.05 C 1346.55 851.76, 1352.35 853.54, 1358.11 855.40 C 1363.88 857.26, 1369.62 859.20, 1375.31 861.22 C 1381.00 863.24, 1386.66 865.34, 1392.27 867.52 C 1397.87 869.70, 1403.44 871.97, 1408.95 874.32 C 1414.46 876.68, 1419.92 879.11, 1425.32 881.64 C 1430.72 884.17, 1436.07 886.79, 1441.34 889.50 C 1446.62 892.21, 1451.84 895.01, 1456.98 897.90 C 1462.12 900.80, 1467.20 903.79, 1472.19 906.87 C 1477.18 909.96, 1482.11 913.15, 1486.94 916.43 C 1491.77 919.72, 1496.53 923.10, 1501.19 926.59 C 1505.85 930.08, 1510.43 933.67, 1514.90 937.36 C 1519.38 941.06, 1523.76 944.86, 1528.04 948.77 C 1532.32 952.68, 1536.50 956.70, 1540.57 960.83 C 1544.64 964.96, 1548.60 969.20, 1552.45 973.56 C 1556.29 977.92, 1560.03 982.38, 1563.64 986.97 C 1567.25 991.56, 1570.75 996.26, 1574.11 1001.09 C 1577.47 1005.91, 1580.71 1010.85, 1583.81 1015.92 C 1586.92 1020.98, 1589.89 1026.18, 1592.72 1031.48 C 1595.55 1036.79, 1598.25 1042.24, 1600.79 1047.76 C 1603.33 1053.28, 1605.73 1058.92, 1607.96 1064.61 C 1610.20 1070.31, 1612.29 1076.10, 1614.20 1081.91 C 1616.12 1087.73, 1617.88 1093.62, 1619.45 1099.51 C 1621.03 1105.41, 1622.44 1111.35, 1623.66 1117.28 C 1624.89 1123.21, 1625.94 1129.16, 1626.79 1135.07 C 1627.64 1140.98, 1628.31 1146.89, 1628.78 1152.74 C 1629.24 1158.60, 1629.50 1164.40, 1629.60 1170.20 C 1629.70 1176.01, 1629.60 1181.76, 1629.37 1187.57 C 1629.14 1193.38, 1628.74 1199.17, 1628.25 1205.05 C 1627.75 1210.93, 1627.10 1216.83, 1626.38 1222.85 C 1625.66 1228.86, 1624.82 1234.93, 1623.94 1241.16 C 1623.05 1247.38, 1621.98 1253.94, 1621.07 1260.18 C 1620.15 1266.42, 1618.36 1275.19, 1618.45 1278.59 C 1618.54 1281.98, 1619.85 1282.85, 1621.60 1280.54 C 1623.35 1278.24, 1626.79 1270.44, 1628.98 1264.75 C 1631.16 1259.07, 1632.83 1252.43, 1634.73 1246.41 C 1636.62 1240.40, 1638.50 1234.49, 1640.36 1228.67 C 1642.22 1222.85, 1644.11 1217.18, 1645.91 1211.49 C 1647.71 1205.81, 1649.49 1200.22, 1651.15 1194.56 C 1652.80 1188.90, 1654.38 1183.26, 1655.85 1177.55 C 1657.31 1171.85, 1658.67 1166.10, 1659.96 1160.34 C 1661.25 1154.57, 1662.44 1148.77, 1663.58 1142.95 C 1664.72 1137.12, 1665.78 1131.27, 1666.81 1125.41 C 1667.84 1119.55, 1668.80 1113.66, 1669.75 1107.77 C 1670.70 1101.87, 1671.60 1095.96, 1672.50 1090.05 C 1673.40 1084.14, 1674.29 1078.21, 1675.17 1072.29 C 1676.04 1066.37, 1676.93 1060.44, 1677.74 1054.52 C 1678.56 1048.59, 1679.36 1042.67, 1680.05 1036.74 C 1680.73 1030.81, 1681.37 1024.88, 1681.86 1018.96 C 1682.36 1013.03, 1682.77 1007.11, 1682.99 1001.19 C 1683.22 995.26, 1683.33 989.34, 1683.22 983.43 C 1683.11 977.51, 1682.84 971.60, 1682.33 965.69 C 1681.81 959.78, 1681.11 953.87, 1680.13 947.98 C 1679.14 942.08, 1677.91 936.17, 1676.43 930.32 C 1674.96 924.47, 1673.23 918.61, 1671.29 912.85 C 1669.35 907.09, 1667.17 901.35, 1664.81 895.74 C 1662.44 890.12, 1659.84 884.56, 1657.08 879.14 C 1654.31 873.73, 1651.34 868.40, 1648.21 863.24 C 1645.09 858.08, 1641.77 853.04, 1638.32 848.19 C 1634.86 843.35, 1631.24 838.66, 1627.49 834.16 C 1623.74 829.66, 1619.83 825.35, 1615.81 821.18 C 1611.79 817.02, 1607.62 813.03, 1603.34 809.18 C 1599.07 805.33, 1594.66 801.64, 1590.15 798.08 C 1585.64 794.51, 1581.01 791.09, 1576.28 787.79 C 1571.56 784.48, 1566.73 781.31, 1561.81 778.24 C 1556.90 775.17, 1551.88 772.22, 1546.79 769.36 C 1541.70 766.49, 1536.52 763.74, 1531.28 761.05 C 1526.04 758.37, 1520.71 755.78, 1515.34 753.25 C 1509.97 750.72, 1504.52 748.27, 1499.03 745.87 C 1493.54 743.47, 1487.99 741.14, 1482.41 738.83 C 1476.83 736.53, 1471.20 734.29, 1465.55 732.07 C 1459.89 729.84, 1454.20 727.66, 1448.49 725.48 C 1442.79 723.31, 1437.05 721.16, 1431.31 719.01 C 1425.57 716.85, 1419.81 714.72, 1414.06 712.56 C 1408.31 710.40, 1402.54 708.25, 1396.80 706.06 C 1391.06 703.88, 1385.32 701.68, 1379.61 699.44 C 1373.91 697.20, 1368.22 694.94, 1362.57 692.62 C 1356.93 690.31, 1351.31 687.96, 1345.76 685.53 C 1340.20 683.11, 1334.68 680.65, 1329.24 678.10 C 1323.79 675.55, 1318.40 672.94, 1313.09 670.24 C 1307.79 667.54, 1302.54 664.77, 1297.40 661.89 C 1292.25 659.01, 1287.18 656.05, 1282.23 652.97 C 1277.27 649.89, 1272.40 646.71, 1267.66 643.40 C 1262.92 640.10, 1258.27 636.68, 1253.77 633.12 C 1249.26 629.56, 1244.87 625.89, 1240.63 622.05 C 1236.39 618.21, 1232.28 614.25, 1228.32 610.11 C 1224.37 605.98, 1220.56 601.70, 1216.92 597.23 C 1213.28 592.77, 1209.80 588.15, 1206.50 583.34 C 1203.20 578.53, 1200.07 573.53, 1197.13 568.39 C 1194.20 563.24, 1191.44 557.91, 1188.89 552.48 C 1186.33 547.04, 1183.97 541.45, 1181.82 535.77 C 1179.67 530.10, 1177.71 524.29, 1175.99 518.44 C 1174.26 512.58, 1172.74 506.62, 1171.46 500.64 C 1170.18 494.65, 1169.11 488.59, 1168.29 482.53 C 1167.47 476.47, 1166.88 470.37, 1166.54 464.29 C 1166.21 458.21, 1166.11 452.11, 1166.28 446.07 C 1166.45 440.03, 1166.86 433.99, 1167.55 428.04 C 1168.24 422.08, 1169.19 416.16, 1170.43 410.35 C 1171.66 404.55, 1173.17 398.80, 1174.96 393.19 C 1176.76 387.58, 1178.84 382.05, 1181.22 376.69 C 1183.61 371.34, 1186.28 366.09, 1189.26 361.04 C 1192.25 356.00, 1195.55 351.09, 1199.15 346.40 C 1202.75 341.71, 1206.69 337.19, 1210.87 332.92 C 1215.04 328.65, 1219.53 324.57, 1224.19 320.77 C 1228.86 316.97, 1233.79 313.39, 1238.85 310.11 C 1243.91 306.83, 1249.20 303.80, 1254.57 301.10 C 1259.94 298.40, 1265.49 295.97, 1271.08 293.90 C 1276.67 291.83, 1282.38 290.06, 1288.10 288.67 C 1293.81 287.28, 1299.61 286.22, 1305.36 285.57 C 1311.10 284.92, 1316.87 284.63, 1322.58 284.76 C 1328.30 284.89, 1333.92 285.43, 1339.64 286.37 C 1345.36 287.30, 1351.04 288.65, 1356.89 290.38 C 1362.75 292.11, 1368.65 294.26, 1374.79 296.76 C 1380.92 299.26, 1387.47 302.57, 1393.69 305.38 C 1399.91 308.19, 1406.62 311.79, 1412.12 313.63 C 1417.61 315.47, 1422.87 317.00, 1426.66 316.39 C 1430.46 315.78, 1432.98 313.34, 1434.87 309.97 C 1436.75 306.61, 1437.45 301.50, 1437.98 296.20 C 1438.52 290.90, 1438.25 284.40, 1438.09 278.15 C 1437.94 271.90, 1437.57 265.17, 1437.06 258.70 C 1436.54 252.23, 1435.96 245.64, 1434.98 239.33 C 1434.00 233.02, 1432.84 226.72, 1431.16 220.84 C 1429.48 214.97, 1427.46 209.28, 1424.90 204.06 C 1422.34 198.84, 1419.25 194.01, 1415.79 189.52 C 1412.33 185.04, 1408.38 180.94, 1404.16 177.15 C 1399.94 173.35, 1395.31 169.92, 1390.48 166.74 C 1385.65 163.57, 1380.47 160.73, 1375.18 158.12 C 1369.90 155.51, 1364.34 153.19, 1358.75 151.08 C 1353.15 148.96, 1347.37 147.11, 1341.61 145.43 C 1335.86 143.74, 1330.03 142.30, 1324.22 140.97 C 1318.41 139.64, 1312.57 138.52, 1306.73 137.46 C 1300.89 136.41, 1295.04 135.51, 1289.19 134.63 C 1283.33 133.75, 1277.47 132.98, 1271.61 132.19 C 1265.75 131.40, 1259.88 130.68, 1254.02 129.88 C 1248.17 129.09, 1242.31 128.32, 1236.47 127.43 C 1230.63 126.54, 1224.79 125.62, 1218.98 124.55 C 1213.16 123.47, 1207.36 122.29, 1201.57 120.98 C 1195.78 119.68, 1190.01 118.22, 1184.24 116.72 C 1178.48 115.22, 1172.73 113.61, 1166.97 112.00 C 1161.22 110.39, 1155.47 108.71, 1149.72 107.08 C 1143.96 105.45, 1138.21 103.79, 1132.44 102.22 C 1126.67 100.65, 1120.90 99.09, 1115.11 97.67 C 1109.32 96.24, 1103.52 94.87, 1097.69 93.68 C 1091.87 92.49, 1086.02 91.40, 1080.15 90.52 C 1074.28 89.64, 1068.38 88.92, 1062.47 88.39 C 1056.55 87.85, 1050.61 87.49, 1044.67 87.30 C 1038.73 87.12, 1032.77 87.10, 1026.82 87.25 C 1020.86 87.40, 1014.90 87.72, 1008.96 88.19 C 1003.01 88.67, 997.06 89.31, 991.14 90.10 C 985.22 90.90, 979.30 91.86, 973.42 92.96 C 967.54 94.07, 961.67 95.33, 955.84 96.73 C 950.02 98.14, 944.22 99.70, 938.46 101.40 C 932.71 103.09, 926.99 104.94, 921.33 106.92 C 915.67 108.90, 910.05 111.03, 904.50 113.28 C 898.95 115.53, 893.45 117.93, 888.02 120.45 C 882.59 122.97, 877.22 125.62, 871.94 128.40 C 866.65 131.17, 861.43 134.08, 856.31 137.10 C 851.18 140.12, 846.13 143.27, 841.18 146.53 C 836.22 149.78, 831.36 153.16, 826.58 156.65 C 821.79 160.13, 817.10 163.73, 812.49 167.42 C 807.88 171.11, 803.35 174.92, 798.90 178.81 C 794.45 182.70, 790.09 186.69, 785.80 190.76 C 781.51 194.83, 777.30 199.00, 773.16 203.24 C 769.02 207.48, 764.96 211.81, 760.97 216.21 C 756.98 220.60, 753.07 225.08, 749.22 229.62 C 745.37 234.15, 741.59 238.76, 737.88 243.43 C 734.17 248.09, 730.53 252.82, 726.95 257.60 C 723.37 262.37, 719.85 267.21, 716.40 272.09 C 712.94 276.96, 709.55 281.89, 706.22 286.85 C 702.88 291.81, 699.61 296.82, 696.39 301.85 C 693.17 306.88, 690.01 311.95, 686.90 317.04 C 683.79 322.12, 680.74 327.24, 677.74 332.38 C 674.73 337.51, 671.78 342.66, 668.87 347.83 C 665.96 353.00, 663.10 358.18, 660.28 363.39 C 657.45 368.60, 654.67 373.83, 651.92 379.08 C 649.17 384.32, 646.46 389.59, 643.76 394.89 C 641.07 400.19, 638.41 405.50, 635.77 410.85 C 633.12 416.19, 630.51 421.56, 627.90 426.96 C 625.29 432.36, 622.70 437.78, 620.12 443.24 C 617.54 448.69, 614.92 454.18, 612.40 459.69 C 609.89 465.19, 607.32 470.74, 605.02 476.28 C 602.72 481.83, 600.47 487.40, 598.62 492.95 C 596.76 498.51, 595.07 504.08, 593.88 509.62 C 592.69 515.15, 591.78 520.69, 591.48 526.19 C 591.19 531.69, 591.28 537.17, 592.11 542.60 C 592.93 548.03, 594.32 553.42, 596.43 558.76 C 598.54 564.10, 601.55 569.38, 604.76 574.63 C 607.97 579.87, 611.94 585.07, 615.68 590.25 C 619.43 595.44, 623.61 600.58, 627.24 605.74 C 630.88 610.90, 634.51 616.03, 637.50 621.19 C 640.49 626.35, 642.82 631.50, 645.17 636.71 C 647.53 641.93, 649.35 647.15, 651.63 652.48 C 653.91 657.80, 655.99 663.16, 658.86 668.66 C 661.73 674.15, 665.48 680.14, 668.85 685.45 C 672.22 690.76, 678.57 697.58, 679.07 700.52 C 679.58 703.47, 675.96 704.02, 671.86 703.10 C 667.76 702.18, 660.10 698.18, 654.49 695.02 C 648.89 691.86, 643.39 687.72, 638.22 684.14 C 633.05 680.55, 628.22 677.04, 623.45 673.51 C 618.68 669.97, 614.17 666.52, 609.61 662.92 C 605.04 659.33, 600.55 655.69, 596.06 651.93 C 591.57 648.16, 587.08 644.30, 582.67 640.34 C 578.25 636.37, 573.86 632.31, 569.57 628.14 C 565.29 623.97, 561.05 619.70, 556.95 615.32 C 552.84 610.94, 548.81 606.46, 544.94 601.88 C 541.07 597.29, 537.31 592.60, 533.73 587.80 C 530.14 583.00, 526.69 578.10, 523.46 573.08 C 520.22 568.06, 517.14 562.94, 514.29 557.71 C 511.45 552.48, 508.81 547.12, 506.39 541.68 C 503.98 536.24, 501.78 530.69, 499.79 525.07 C 497.80 519.46, 496.02 513.74, 494.44 507.99 C 492.85 502.23, 491.48 496.40, 490.30 490.55 C 489.11 484.69, 488.13 478.78, 487.32 472.86 C 486.52 466.95, 485.91 460.99, 485.47 455.06 C 485.04 449.12, 484.79 443.17, 484.70 437.24 C 484.62 431.31, 484.72 425.38, 484.96 419.47 C 485.21 413.56, 485.63 407.66, 486.19 401.77 C 486.76 395.89, 487.48 390.01, 488.34 384.16 C 489.19 378.30, 490.20 372.46, 491.33 366.64 C 492.46 360.82, 493.73 355.01, 495.12 349.23 C 496.50 343.45, 498.02 337.68, 499.64 331.94 C 501.26 326.20, 503.00 320.48, 504.83 314.79 C 506.67 309.10, 508.61 303.43, 510.64 297.79 C 512.67 292.15, 514.80 286.53, 517.01 280.95 C 519.21 275.36, 521.51 269.81, 523.87 264.28 C 526.23 258.76, 528.67 253.27, 531.16 247.81 C 533.66 242.35, 536.23 236.92, 538.84 231.53 C 541.45 226.14, 544.12 220.79, 546.83 215.47 C 549.54 210.16, 552.30 204.88, 555.09 199.63 C 557.88 194.39, 560.71 189.18, 563.57 183.99 C 566.44 178.81, 569.34 173.65, 572.27 168.52 C 575.19 163.38, 578.15 158.27, 581.14 153.17 C 584.12 148.07, 587.13 142.98, 590.16 137.91 C 593.19 132.83, 596.24 127.77, 599.31 122.71 C 602.38 117.64, 605.47 112.59, 608.56 107.52 C 611.66 102.46, 614.75 97.39, 617.89 92.33 C 621.03 87.26, 624.13 82.17, 627.40 77.13 C 630.67 72.09, 633.96 67.06, 637.51 62.10 C 641.05 57.14, 644.79 52.39, 648.69 47.37 C 652.59 42.36, 657.30 37.16, 660.91 32.03 C 664.52 26.90, 669.87 19.99, 670.33 16.59 C 670.79 13.19, 667.11 12.03, 663.67 11.64 C 660.22 11.25, 654.72 12.71, 649.68 14.25 C 644.65 15.80, 639.02 18.30, 633.44 20.93 C 627.86 23.55, 621.91 26.85, 616.21 30.00 C 610.52 33.15, 604.74 36.59, 599.27 39.81 C 593.80 43.03, 588.54 46.17, 583.38 49.32 C 578.23 52.46, 573.26 55.54, 568.34 58.67 C 563.42 61.81, 558.64 64.92, 553.85 68.14 C 549.06 71.36, 544.33 74.61, 539.60 77.97 C 534.87 81.34, 530.16 84.78, 525.47 88.31 C 520.78 91.83, 516.11 95.44, 511.48 99.13 C 506.84 102.81, 502.23 106.57, 497.67 110.40 C 493.10 114.23, 488.57 118.14, 484.08 122.11 C 479.60 126.08, 475.16 130.12, 470.77 134.22 C 466.39 138.33, 462.05 142.50, 457.77 146.72 C 453.50 150.94, 449.28 155.23, 445.13 159.57 C 440.98 163.91, 436.89 168.31, 432.87 172.77 C 428.84 177.22, 424.89 181.74, 421.00 186.30 C 417.12 190.87, 413.31 195.49, 409.57 200.16 C 405.83 204.83, 402.16 209.56, 398.57 214.34 C 394.98 219.12, 391.46 223.95, 388.03 228.83 C 384.60 233.71, 381.24 238.65, 377.97 243.63 C 374.70 248.61, 371.52 253.64, 368.42 258.72 C 365.32 263.80, 362.30 268.93, 359.38 274.10 C 356.46 279.28, 353.62 284.50, 350.88 289.77 C 348.14 295.03, 345.49 300.34, 342.94 305.70 C 340.39 311.06, 337.93 316.46, 335.58 321.90 C 333.22 327.35, 330.96 332.83, 328.81 338.36 C 326.66 343.89, 324.61 349.46, 322.66 355.07 C 320.72 360.68, 318.88 366.34, 317.15 372.02 C 315.42 377.71, 313.80 383.44, 312.29 389.20 C 310.78 394.95, 309.38 400.75, 308.08 406.56 C 306.79 412.38, 305.61 418.22, 304.54 424.09 C 303.47 429.95, 302.52 435.85, 301.67 441.75 C 300.83 447.66, 300.10 453.58, 299.48 459.52 C 298.87 465.46, 298.36 471.41, 297.98 477.36 C 297.59 483.32, 297.32 489.29, 297.17 495.26 C 297.02 501.22, 296.98 507.20, 297.06 513.17 C 297.14 519.14, 297.34 525.11, 297.66 531.07 C 297.98 537.03, 298.42 542.98, 298.98 548.93 C 299.54 554.87, 300.22 560.80, 301.03 566.72 C 301.83 572.63, 302.75 578.53, 303.80 584.41 C 304.85 590.29, 306.02 596.15, 307.32 601.98 C 308.61 607.80, 310.03 613.61, 311.57 619.38 C 313.11 625.15, 314.77 630.90, 316.55 636.60 C 318.32 642.29, 320.22 647.96, 322.22 653.58 C 324.22 659.19, 326.34 664.77, 328.57 670.29 C 330.79 675.80, 333.13 681.28, 335.57 686.69 C 338.01 692.10, 340.56 697.46, 343.21 702.75 C 345.85 708.04, 348.61 713.27, 351.45 718.42 C 354.30 723.58, 357.25 728.66, 360.29 733.69 C 363.34 738.72, 366.48 743.67, 369.72 748.59 C 372.95 753.52, 376.29 758.38, 379.73 763.24 C 383.16 768.10, 386.69 772.91, 390.32 777.73 C 393.95 782.55, 397.68 787.35, 401.51 792.17 C 405.34 797.00, 409.26 801.81, 413.29 806.67 C 417.32 811.52, 422.11 816.85, 425.66 821.31 C 429.22 825.78, 434.74 831.59, 434.62 833.46 C 434.50 835.33, 429.59 834.14, 424.93 832.53 C 420.28 830.92, 412.42 826.85, 406.68 823.81 C 400.94 820.76, 395.71 817.48, 390.48 814.25 C 385.24 811.01, 380.24 807.75, 375.29 804.40 C 370.35 801.06, 365.55 797.68, 360.82 794.19 C 356.09 790.70, 351.48 787.15, 346.93 783.47 C 342.38 779.79, 337.92 776.01, 333.51 772.10 C 329.11 768.18, 324.76 764.14, 320.50 759.98 C 316.24 755.82, 312.05 751.53, 307.96 747.14 C 303.88 742.74, 299.87 738.23, 295.99 733.63 C 292.11 729.02, 288.33 724.30, 284.69 719.50 C 281.05 714.70, 277.52 709.79, 274.15 704.81 C 270.78 699.82, 267.53 694.74, 264.47 689.60 C 261.40 684.45, 258.47 679.22, 255.73 673.92 C 252.99 668.63, 250.43 663.26, 248.03 657.83 C 245.63 652.40, 243.41 646.91, 241.34 641.37 C 239.27 635.82, 237.38 630.22, 235.63 624.57 C 233.89 618.92, 232.31 613.22, 230.87 607.49 C 229.44 601.75, 228.16 595.97, 227.03 590.15 C 225.90 584.34, 224.91 578.49, 224.07 572.62 C 223.22 566.74, 222.52 560.83, 221.95 554.91 C 221.38 548.99, 220.95 543.04, 220.65 537.09 C 220.34 531.13, 220.17 525.16, 220.12 519.18 C 220.07 513.21, 220.15 507.22, 220.34 501.24 C 220.53 495.26, 220.85 489.27, 221.27 483.30 C 221.70 477.33, 222.24 471.35, 222.89 465.40 C 223.53 459.45, 224.29 453.51, 225.14 447.59 C 225.99 441.68, 226.95 435.78, 228.01 429.91 C 229.06 424.04, 230.21 418.19, 231.45 412.37 C 232.70 406.54, 234.03 400.74, 235.46 394.97 C 236.88 389.19, 238.40 383.44, 239.99 377.72 C 241.59 371.99, 243.27 366.29, 245.03 360.61 C 246.79 354.93, 248.63 349.27, 250.55 343.64 C 252.46 338.01, 254.45 332.40, 256.52 326.82 C 258.58 321.23, 260.71 315.68, 262.91 310.14 C 265.11 304.60, 267.38 299.09, 269.71 293.61 C 272.04 288.12, 274.43 282.65, 276.88 277.21 C 279.33 271.77, 281.84 266.36, 284.40 260.97 C 286.96 255.58, 289.58 250.21, 292.25 244.86 C 294.91 239.52, 297.63 234.20, 300.39 228.90 C 303.15 223.61, 305.96 218.34, 308.81 213.09 C 311.65 207.84, 314.54 202.62, 317.47 197.42 C 320.40 192.22, 323.37 187.05, 326.39 181.90 C 329.40 176.76, 332.46 171.64, 335.56 166.56 C 338.66 161.47, 341.80 156.41, 344.99 151.39 C 348.18 146.37, 351.41 141.37, 354.69 136.42 C 357.97 131.46, 361.30 126.53, 364.67 121.65 C 368.04 116.76, 371.46 111.91, 374.92 107.09 C 378.39 102.28, 381.90 97.51, 385.47 92.76 C 389.03 88.02, 392.64 83.31, 396.30 78.61 C 399.96 73.90, 403.67 69.23, 407.43 64.54 C 411.19 59.84, 415.03 55.20, 418.86 50.46 C 422.69 45.71, 426.79 41.13, 430.40 36.05 C 434.01 30.98, 438.28 24.68, 440.51 20.00 C 442.74 15.31, 444.89 9.60, 443.78 7.95 Z"
        fill="#00BF6F"
        fill-rule="evenodd"/>
</svg>
